<?xml version="1.0" encoding="UTF-8"?>
<svg version="1.1" viewBox="0 0 597.15 441.93" xmlns="http://www.w3.org/2000/svg">
 <defs>
  <filter id="m" color-interpolation-filters="sRGB">
   <feGaussianBlur stdDeviation="0.84437301"/>
  </filter>
  <filter id="l" color-interpolation-filters="sRGB">
   <feGaussianBlur stdDeviation="1.688746"/>
  </filter>
  <filter id="k" color-interpolation-filters="sRGB">
   <feGaussianBlur stdDeviation="1.1541665"/>
  </filter>
  <filter id="j" color-interpolation-filters="sRGB">
   <feGaussianBlur stdDeviation="2.2964283"/>
  </filter>
  <filter id="i" x="-.1034" y="-.037464" width="1.2068" height="1.0749" color-interpolation-filters="sRGB">
   <feGaussianBlur stdDeviation="2.1182309"/>
  </filter>
  <filter id="h" x="-.17726" y="-.28869" width="1.3545" height="1.5774" color-interpolation-filters="sRGB">
   <feGaussianBlur stdDeviation="6.4203046"/>
  </filter>
  <filter id="g" color-interpolation-filters="sRGB">
   <feGaussianBlur stdDeviation="1.3468784"/>
  </filter>
  <filter id="f" x="-.24603" y="-.35311" width="1.4921" height="1.7062" color-interpolation-filters="sRGB">
   <feGaussianBlur stdDeviation="8.4900753"/>
  </filter>
  <filter id="e" x="-.14498" y="-.13369" width="1.29" height="1.2674" color-interpolation-filters="sRGB">
   <feGaussianBlur stdDeviation="1.6941009"/>
  </filter>
  <filter id="d" x="-.21852" y="-.12861" width="1.437" height="1.2572" color-interpolation-filters="sRGB">
   <feGaussianBlur stdDeviation="1.372358"/>
  </filter>
  <linearGradient id="c" x1="122.23" x2="525.28" y1="371.52" y2="368.49" gradientUnits="userSpaceOnUse">
   <stop stop-color="#919598" offset="0"/>
   <stop stop-color="#a8aaac" offset=".63684"/>
   <stop stop-color="#919598" offset="1"/>
  </linearGradient>
  <linearGradient id="b" x1="314.64" x2="315.61" y1="201.98" y2="292.9" gradientTransform="translate(2)" gradientUnits="userSpaceOnUse">
   <stop stop-color="#685640" offset="0"/>
   <stop stop-color="#685640" stop-opacity="0" offset="1"/>
  </linearGradient>
  <linearGradient id="a" x1="345.47" x2="346.48" y1="559.41" y2="515.97" gradientUnits="userSpaceOnUse">
   <stop stop-color="#73726f" offset="0"/>
   <stop stop-color="#73726f" stop-opacity="0" offset="1"/>
  </linearGradient>
 </defs>
 <g transform="translate(-104.83 -124.06)">
  <g transform="translate(-2.0203 -6.0609)">
   <path d="m109.12 283.09c1.6183 19.491 3.21 38.985 4.9852 58.462 1.815 20.986 3.6156 41.975 5.6759 62.939 0.57395 5.8107 1.1688 11.624 2.1745 17.379 0.50385 2.9255 0.9549 5.8611 1.4769 8.7826 0.65131 2.7765 1.7602 5.4192 2.8125 8.0625 1.6097 3.4861 3.4254 6.875 5.2549 10.248 1.6198 2.7342 3.4241 5.3493 5.3139 7.9027 5.6753 7.7554 12.03 14.981 18.511 22.067 2.4666 2.6819 4.958 5.3413 7.5143 7.938 8.1733 4.9639 16.618 9.4584 24.915 14.209 25.145 14.2 50.262 28.449 75.398 42.666 9.5529 1.8332 19.129 3.5603 28.763 4.9119 6.1442 0.86336 12.313 1.5562 18.49 2.1398 6.7974 0.61899 13.607 1.1202 20.432 1.2913 6.9831 0.1776 13.977 0.0908 20.95-0.33662 6.7078-0.41041 13.366-1.4262 19.934-2.8361 9.8304-2.0953 19.642-4.2924 29.378-6.7968 8.302-2.1844 16.512-4.7567 24.459-8.0153 8.4193-3.3652 16.557-7.4541 24.188-12.358 4.1446-2.6204 8.2625-5.2962 12.21-8.2072 7.6708-5.7173 15.051-11.826 22.081-18.315 4.3123-3.9448 8.6773-7.8317 13.035-11.725 4.9336-4.5047 9.6243-9.2739 14.007-14.317 4.3375-4.8365 8.373-9.9408 12.063-15.288 4.2129-6.0531 8.1618-12.308 11.529-18.874 1.8724-3.5425 3.335-7.3023 4.2308-11.211 1.0612-4.0339 1.8234-8.1398 2.7096-12.213 0.47818-3.5587 0.65769-7.1485 1.1234-10.708 0.48239-4.8182 0.92096-9.6546 0.75604-14.502-0.19562-23.877-0.57484-47.752-0.84856-71.628l-0.70925-56.886h-434.88c0.6875 8.4062 1.375 16.812 2.0625 25.219z" fill="url(#c)"/>
   <path transform="matrix(.99809 0 0 1 2.048 0)" d="m542.14 254.51c0 67.458-97.858 122.14-218.57 122.14s-218.57-54.685-218.57-122.14c0-67.458 97.858-122.14 218.57-122.14s218.57 54.685 218.57 122.14z" fill="#a4b3c6"/>
   <path d="m324.27 181.21c-105.72 0-191.41 43.181-191.41 96.438 0 0.93765 0.0411 1.8813 0.0937 2.8125 0.0505 0.0716 0.10547 0.14724 0.15625 0.21875 29.778 41.935 104.44 71.688 191.88 71.688 86.066 0 159.78-28.823 190.47-69.719 1e-3 -0.0102-1e-3 -0.0211 0-0.0312 0.0395-0.39284 0.0323-0.79286 0.0625-1.1875 0.0963-1.2564 0.1875-2.5148 0.1875-3.7812 0-53.256-85.714-96.438-191.44-96.438z" fill="#685640"/>
   <path transform="matrix(.94118 0 0 .91813 20.462 20.837)" d="m542.14 254.51c0 67.458-97.858 122.14-218.57 122.14s-218.57-54.685-218.57-122.14c0-67.458 97.858-122.14 218.57-122.14s218.57 54.685 218.57 122.14z" fill="#827a70"/>
   <path d="m324.27 192.78c-105.72 0-191.41 43.181-191.41 96.438 0 0.93765 0.0411 1.8813 0.0937 2.8125 0.0505 0.0716 0.10547 0.14724 0.15625 0.21875 29.778 41.935 104.44 71.688 191.88 71.688 86.066 0 159.78-28.823 190.47-69.719 1e-3 -0.0102-1e-3 -0.0211 0-0.0312 0.0395-0.39284 0.0323-0.79286 0.0625-1.1875 0.0963-1.2564 0.1875-2.5148 0.1875-3.7812 0-53.256-85.714-96.438-191.44-96.438z" fill="#685640" filter="url(#k)"/>
   <path d="m324.27 198.78c-105.72 0-191.41 42.461-191.41 94.828 0 0.922 0.0411 1.8499 0.0937 2.7656 0.0505 0.0704 0.10547 0.14478 0.15625 0.2151 29.778 41.235 104.44 70.491 191.88 70.491 86.066 0 159.78-28.342 190.47-68.555 1e-3 -0.01-1e-3 -0.0208 0-0.0307 0.0395-0.38629 0.0323-0.77963 0.0625-1.1677 0.0963-1.2354 0.1875-2.4728 0.1875-3.7181 0-52.367-85.714-94.828-191.44-94.828z" fill="#918c89" filter="url(#j)"/>
   <path d="m173.93 267.45c6.0879 7.8374 60.714-32.143 132.86-35.714 72.143-3.5714 157.14 34.286 162.86 30.714 5.7143-3.5714-37.143-75-161.43-67.857-124.29 7.1429-136.55 69.946-134.29 72.857z" fill="url(#b)"/>
   <path transform="matrix(1 0 0 -.98993 0 504.69)" d="m324.51 130.86c-118.25 0-214.12 54.699-214.12 122.16 0 67.458 95.874 122.12 214.12 122.12s214.09-54.667 214.09-122.12c1e-4 -67.458-95.843-122.16-214.09-122.16zm0 10c113.61 0 205.69 50.221 205.69 112.16 0 61.935-92.075 112.12-205.69 112.12-113.61 0-205.72-50.19-205.72-112.12 0-61.935 92.106-112.16 205.72-112.16z" fill="#ced1d4" filter="url(#g)" opacity=".84746"/>
   <path d="m263.14 545.77 8.5863-13.132s88.136 30.305 204.05-30.305c-37.376 35.103-108.84 67.428-212.64 43.437z" fill="url(#a)"/>
   <path d="m200.01 415.95s-9.0914-16.162 2.0203-20.203c11.112-4.0406 62.629 1.0102 68.69 9.0914 6.0609 8.0812 10.102 30.305 8.0812 36.365-2.0203 6.0609-19.193 13.132-33.335 10.102-14.142-3.0304-45.457-35.355-45.457-35.355z" fill="#73726f" filter="url(#f)"/>
   <path d="m207.59 401.82s48.487-1.0102 59.094 16.668 1.0102 22.728 1.0102 22.728-31.82 21.213-34.345 25.254c-2.5254 4.0406-4.5457 24.244-4.5457 24.244s45.457 5.0508 51.013 23.739c5.5558 18.688-47.982 57.579-47.982 57.579s-53.033 1.0102-60.609-12.627c-7.5762-13.637-13.637-100.51-6.566-110.11 7.0711-9.5964 32.325-42.931 42.931-47.477z" fill="#838385"/>
   <path transform="matrix(.95738 0 0 .97027 9.7386 14.119)" d="m172.74 445.26c0 9.0914 43.942 16.162 50.508 13.132 6.566-3.0305 36.365-33.335 36.365-37.881 0-4.5457-48.487-16.162-52.528-14.647-4.0406 1.5152-35.86 34.85-34.345 39.396z" fill="#eef2f6" filter="url(#h)" opacity=".69915"/>
   <path d="m270.72 430.61s-36.305 29.301-38.891 33.335c-6.3135 9.849-1.7678 91.419 4.0406 91.419 4.0721 0 39.901-41.416 39.901-41.416s-31.224 47.354-38.386 51.518c-10.859 6.3134-18.435-95.207-9.5964-105.56 3.7101-4.3461 38.891-34.85 42.931-29.294z" fill="#e6f5fe" filter="url(#i)" opacity=".47881"/>
   <path transform="matrix(1.1094 .64431 -.75738 .94379 204.5 -253.41)" d="m427.29 340.46c0 9.9026-4.6357 17.93-10.354 17.93-5.7184 0-10.354-8.0276-10.354-17.93 0-9.9026 4.6357-17.93 10.354-17.93 5.7184 0 10.354 8.0276 10.354 17.93z" fill="#6c5c47" filter="url(#e)" opacity=".84746"/>
   <path d="m413.66 325.56 70.711-20.203 84.348-22.728s54.043-16.668 67.175-23.234 54.548-29.8 57.579-31.315c3.0304-1.5152 13.637-1.5152 6.0609 8.5863-7.5762 10.102-51.013 38.891-61.114 45.962-10.102 7.0711-83.338 30.81-140.92 41.921-24.749 4.5457-90.914 26.264-93.439 24.244-2.5254-2.0203-3.0305-14.647 9.5964-23.234z" fill="#8c9ba6"/>
   <path d="m409.87 337.41c-3.0305 3.0305-6.3135 5.3033-2.778 6.8185 3.5356 1.5152 47.839-11.176 56.821-13.637 18.435-5.0508 66.417-15.152 73.489-17.678 7.0711-2.5254 65.647-19.251 76.267-23.739 17.93-7.5762 66.417-36.113 83.59-51.013 2.778-1.7678 4.4088-7.3182-0.2525-3.283-16.92 14.647-72.177 46.923-84.095 51.265-11.918 4.3424-36.618 12.374-75.509 22.476s-115.92 25.254-127.53 28.789z" fill="#5f7d91" filter="url(#l)"/>
   <path d="m409.87 335.41c-3.0305 3.0305-6.3135 5.3033-2.778 6.8185 3.5356 1.5152 47.839-11.176 56.821-13.637 18.435-5.0508 66.417-15.152 73.489-17.678 7.0711-2.5254 65.647-19.251 76.267-23.739 17.93-7.5762 66.417-36.113 83.59-51.013 2.778-1.7678 4.4088-7.3182-0.2525-3.283-16.92 14.647-72.177 46.923-84.095 51.265-11.918 4.3424-36.618 12.374-75.509 22.476s-115.92 25.254-127.53 28.789z" fill="#9dadb8" filter="url(#m)"/>
   <path transform="matrix(1.2568 0 0 1.1264 -102.28 -44.268)" d="m401.79 350.22c0-6.4286 0.80748-14.525 12.143-24.643 5.4863-4.8971-22.143 9.6429-12.143 24.643z" fill="#d0edff" filter="url(#d)"/>
  </g>
 </g>
</svg>
